/* XPM */
static char *_572645800111[] = {
/* columns rows colors chars-per-pixel */
"64 86 115 2 ",
"   c #FC00FC",
".  c #844C30",
"X  c #905C3C",
"o  c #8C7468",
"O  c #AC7C58",
"+  c #8C5438",
"@  c #A87450",
"#  c #986444",
"$  c #483C34",
"%  c #AC9484",
"&  c #5C4C44",
"*  c #1C1414",
"=  c #C8BCC0",
"-  c #ECE8EC",
";  c #D4CCD0",
":  c #887C80",
">  c #60585C",
",  c #6C6064",
"<  c #4C4038",
"1  c #6C5C50",
"2  c #B49C8C",
"3  c #B0ACAC",
"4  c #4C4848",
"5  c #28201C",
"6  c #9C8478",
"7  c #603420",
"8  c #B89068",
"9  c #A06C48",
"0  c #544440",
"q  c #78442C",
"w  c #B08460",
"e  c #704028",
"r  c #644418",
"t  c #180C04",
"y  c #403430",
"u  c #A09498",
"i  c #B8B0B4",
"p  c #ACA4A8",
"a  c #94888C",
"s  c #585050",
"d  c #403C3C",
"f  c #807478",
"g  c #C0B8B8",
"h  c #101420",
"j  c #683C24",
"k  c #64544C",
"l  c #C4A078",
"z  c #806C60",
"x  c #342C28",
"c  c #CCC4C8",
"v  c #A89CA0",
"b  c #746C70",
"n  c #3C302C",
"m  c #786458",
"M  c #301C10",
"N  c #54301C",
"B  c #BC9870",
"V  c #302420",
"C  c #442418",
"Z  c #D4B0A4",
"A  c #D8B8AC",
"S  c #CCAC80",
"D  c #947C70",
"F  c #E0C4B0",
"G  c #28140C",
"H  c #4C2C18",
"J  c #D4B08C",
"K  c #D8D4D8",
"L  c #E4CCA8",
"P  c #3C2014",
"I  c #C0A494",
"U  c #988C90",
"Y  c #A88C7C",
"T  c #C8AC9C",
"R  c #38446C",
"E  c #0C0C08",
"W  c #E0D8DC",
"Q  c #F4F0F4",
"!  c #383434",
"~  c #201C18",
"^  c #0C0C18",
"/  c #0C0404",
"(  c #040404",
")  c #18140C",
"_  c #141010",
"`  c #8C200C",
"'  c #C83010",
"]  c #D84018",
"[  c #B82C10",
"{  c #9C240C",
"}  c #E06830",
"|  c #D83414",
" . c #701808",
".. c #D84C1C",
"X. c #DC5C28",
"o. c #CC3018",
"O. c #AC280C",
"+. c #601404",
"@. c #801C08",
"#. c #180400",
"$. c #541004",
"%. c #040810",
"&. c #040400",
"*. c #0C0000",
"=. c #E4E0E4",
"-. c #6078A8",
";. c #B4D4F4",
":. c #A4C4E4",
">. c #444028",
",. c #2C282C",
"<. c #5C70A0",
"1. c #344064",
"2. c #201008",
"3. c #242020",
"4. c white",
/* pixels */
"          . X o O + . . . + X @ @ # # . $ % & * $ = - ; : > & , , < 1 2 = 3 4 5 < + 6 $ + . X . . 7 @ 8 O 9 0                   ",
"      q o @ 8 8 8 w # . e . . . . . q r < < 4 t y u i p a , s d y y y > f g f * h < > j k + . . e X 8 l l 8 w O 0               ",
"    e z 8 8 l l w 8 l O O X . e . . e q > t x 5 , g c v b p k 4 , 0 n > z f m $ * x M N X X . + + w l B l l 8 w 8 X <           ",
"    y X w l w w @ # @ 8 l O O # . . . + u M M V s c c o s b y x n y x > o m 6 s M n n j % + + O 8 l l l l l B w l # o x         ",
"  C k X # 9 j q . + + # l Z A S 9 . . + ; m j & D F B o $ V M G * t * t n D D D < H q D g + w S 8 B Z 8 8 8 8 8 8 1 k n         ",
"  H + 9 k + 7 + 8 l 8 8 w l B J S O + + K u & o % L Z B k t M M G G G t G u w Z 1 7 1 K i # B S l Z S l l 8 l 8 8 O . V V       ",
"  7 & # e 7 j . w 8 @ O @ 8 l S S 8 9 q : , s P j I p F z G G G t * t t C z I v 7 N s U Y 8 l w 8 l l l 8 l l B 8 o X 0 x       ",
"  C < + # 7 r e + O 8 O @ 8 l S S 8 Y @ < 4 $ G u 6 z > * G * t * t t t t < B T k M 0 R k l l l B l l l @ @ S w # k . y V       ",
"< x < # m r C . w l 8 8 O @ w Z J T 2 O 8 k H M 6 6 z C M M * t t t E E * $ Y w o G y . O Z 8 % % B 8 O w O l 9 O m & n 5       ",
"$ n V 1 k < V + 8 8 O w O B B l B 3 T 9 8 X + O 2 Y X . $ H t t t * t E M q j % D N O A O w 8 I 2 O l O 9 w 8 X @ k k V         ",
"$   V < k & H w w 8 @ O @ l l l w i A 9 @ q 9 S Y # q j C G t t G t G G C . q + 6 + 9 Z l 9 9 8 g 9 @ + + + 9 . # & < V         ",
"y   C H k < 7 O O # 8 O @ w l Z 8 c K o w q # O 9 9 9 + M M M M M M * G C j 9 X 9 + w Z w # + 2 c D @ q n N . m X k n 5         ",
"y   y H $ $ H + 8 . @ # # @ B l Y i W 3 @ # 9 # 9 9 . 7 H H C M M G * M V C q 9 # . O J O O Z W c D w + + k N & X k V *         ",
"<   y n $ k & 7 w m @ O w 9 w l w 3 Q : 4 < H N # # . j 7 C M M G G M M M M q @ @ . . . z > u - v @ 8 w w m 7 k # X V           ",
"y   $ y H & X 7 # X w O w O @ l w a u 4 > y M C . O # j 7 M M M M G M M V C H q # j M M $ , > c U w 8 o X k C + X $ V           ",
"    < y P < + & m X @ w @ @ # + O 4 ! s s M M V X w + 7 7 H M M M M G M C C M V # q V C y > s 4 s w w z + k V H 1 n C           ",
"    n x N . w 1 # 1 # X X # O w @ 7 x 4 n M M C @ O @ q H C M M M M G M C M M H # . M C P $ s x m w @ # m m H ~ 1 0 C           ",
"    y 0 . k w @ 9 & # . + # # O # j V ^ / G G 7 @ @ 9 # 7 C M M * G G M M G . . 9 9 C M M V x V 1 9 # + 1 k H M X k C           ",
"    7 & j X X # w o & + k q j H 7 7 7 H G ( M + 9 # # + j N M M M G * G G H 9 + + # e t / / t j j . . . . & H 7 + & V           ",
"    H k j m 8 X 9 8 & & H G C H C H H . 9 . . # # + + # . j H C M M M M G C + X + . . M ( H . q j 7 7 7 j q < N < & n           ",
"    y < < & X 9 X # X V G M H 7 H 7 H C q @ X 9 # . . + . q j H H C H q q q e q q . + . # @ . C H $ N C M P C $ k j n           ",
"    V V n & & m # k & G M C 7 j 7 7 N H H + # # 9 . . q . . . e C G 7 + q . . + 9 9 9 9 @ 9 7 M C H H 7 H C G V m j V           ",
"    M V V $ & k @ # H M C H 7 j 7 7 7 j H . X # 9 X e 7 j . + . e 7 q e . # 9 # + 9 9 # # q C C H 7 $ H C N C M & $ x           ",
"    * 5 V V k # 1 o C M H 7 7 j j j 7 7 j q e q X 9 . 7 N 7 q . q j j . + + . e 7 . + # + e C H 7 j j 7 N 7 H M H x 5           ",
"      5 M M $ X + # C C H 7 7 j 7 7 7 N j . q q q 9 w @ + + # + . . + 9 + . X # 9 O 9 @ + q N 7 j e q j 7 7 7 M V V             ",
"      * ~ M V & 1 X < G C 7 7 j 7 7 7 N e e 7 . + + + q # @ @ O 9 O @ O O @ 9 . # 9 @ 9 . 7 j 7 7 7 e j 7 7 C C V ~             ",
"        ) 5 V H k z X M C H H H N 7 7 e + 7 7 j j 7 7 q 7 * G P C 7 j $ 7 $ C M e . . + q 7 7 . j 7 7 j 7 j M n M               ",
"        _ h 5 V < m m H j 7 N 7 q q + + 7 C H H 7 e q q C ` ' ] [ { { ] } |  .H q e 7 7 j e N q . e 7 7 7 q C 5                 ",
"          * ) 5 n k q 7 e j j q . . + q 7 e 7 C C 7 7 j H | | | | | | ..| X.| 7 7 C C N q . 7 7 q q 7 N N . 7 5                 ",
"            G ) M H $ 7 N 7 q j e q j 7 . + X . C M N 7 7 [ ] | ' o.o.o.[ [ O.+.H t H j # # 7 H 7 7 q q j e k                   ",
"              M ) ~ V H 7 q q . j . 7 H j . # # q H C N q j ` { ` ` ` { { ` 7 7 G P 7 7 . X 7 N 7 7 q . . e y                   ",
"                P ~ M C C H e # # . 7 N C . + q C C C V M 7 7 C C H C C C q . j H N 7 7 j e 7 C H N q . # r x                   ",
"                  5 E G C C j . # q 7 7 C e e ` | | o.O. .G n P G M H C N + 7 V C  .@.` @.7 P M 7 7 + . C P                     ",
"                  * #./ t t H . + . 7 j 7 C O.[ | ' ' | ..O.$.$ e t G q . M P O...| ] ..} o.+.V H C . q M G %.                  ",
"                  E t t t ( C q q . j 7 . 7 $.{ [ | | | | } o.$.H G G j N $.o.} | ' | o.' @.7 7 M 7 . 7 / #.&.                  ",
"                    * t t t * j q . 7 H j q N P @.{ O.' | ' o.` n C M H P O.| | o.' [ ` $.j + C C . q M / #.&.                  ",
"                      G t * / M j j C C $ j e e 7 +. .@. . . .G P C G 7 G +.@.@.+. .+.P . 9 C G 7 q 7 t / t t *                 ",
"                  x $ e M t t / *.*./ M C V j + . + e 7 H M C . j e e 7 e H M M C C 7 . . 7 M M t t t / t t G n 5               ",
"                y + 9 # # 7 t t t * * C H M M j q q q e e e q q . + + . + . q j 7 N e q q 7 M * t t t t t e 9 # + 0             ",
"              y # # # # + q G M C P M G 7 7 M M H j 7 j 7 j q e 7 j j j j j N C C H H H C M G t M C C t N 9 9 9 # 1 0           ",
"            V # # X + + . N M j v u r M C j 7 t 5 b $ : < s a < & k 0 $ > y s x x $ ) G G G t M 1 2 X G H . @ @ @ @ w +         ",
"            < # . e e e j N V u c 3 f 7 H 7 H t * , y b $ 4 u x a s 4 4 k ~ b 5 y 5 / t G G M 7 i =.i n G q # @ # 9 w z <       ",
"          x . + . q 7 j H P , i u , y P C 7 7 G G x t V 5 * , G d t ) V ! t 5 ) G t t t G M C n -.3 K u C N q # # + O 9 .       ",
"          < . . q j 7 H M $ v v , V t G H q e M M G ) ) t ) * t / t t t t t / t M G G G M V V   n & 3 ; : C 7 . + # O 8 9 y     ",
"        j j q # q 7 n M P , g f V G t t G j q H M M t t t t t t t t t t t G t t P M C M n P       n b g g   n r j . # O @ j     ",
"        y q q + . j V     j 3 : ) ) t G G M H 7 C C G t ) t t G M M G t t t G G 7 H 7 H 7           n 3 ;.    V C q # O 9 & <   ",
"        $ k H H 7 j n     < $ a b M G G t t G C M N C t t t ) G $ C t / t t G C 7 C H G ~           < :.:       M 7 + O O # 0   ",
"        q C C C H k O         V 0 > M * * / t N C N $ G G G G M 7 C t G G G M 7 j H H P             , f         C q # 9 9 + N   ",
"      0 y M H C 1 D 6           V n M M V G * j j $ , $ C C C C j N C C C P < , q j r V                         n . # H H N ~ V ",
"      y 5 M H V o D k           V 0 V M V M * N q q 1 7 M M M H & < P G G C & z + j H n                         >.+ q V M N n * ",
"      < $ n < y H D +         < > > x G C M t C q r k $ M M M M & N M M G M 7 # q H * ~                     f   n j N H & m a 0 ",
"        & 4 V f U p = Y 9 O Y o , y V * V M * M j e s > H C N N & 7 N N C n > X 7 M E t                     > a X s s 3 i v : s ",
"        D m 5 , K u p p 2 m     V ,.V * M C G * H q m 1 N N j q . q e j N 7 m + H t / /                       y -.<.u c U 3 , $ ",
"        d s s ! z z <., q         ,.H M M H V * G j . + < C P N . q N C C < X + C t / E                         < j 0 <.: : 4 > ",
"          n ! y y y               V n M M < H M t C q s , j C N q j N C < , + j * t t *                             < e q 1.n ! ",
"                                  V V M ~ $ $ V * t N k 0 + j 7 e j e C k 4 . H / * M M                                         ",
"                                  V V V M C < C G t M j k 6 9 + X + . + w 1 . G / * M x                                         ",
"                                  n n V C M < $ ~ * * H > b 8 v w Y 6 2 v U + t t M H y                                         ",
"                                  H $ n P C y $ M * M M y & 1 , o b o , 1 4 C t * V y H                                         ",
"                                  H $ $ M 5 n n G t G t C e e 7 j < 7 j . C t t * V $ C                                         ",
"                                  H 7 $ ~ M V V * / * t G 7 e . . . . . j G t t G H < N                                         ",
"                                  H < $ V M V V * ~ 2.t t * M 7 q j $ C G E t t ~ H y n                                         ",
"                                  n < H M V H V P V ~ t E t E 5 P M G G t t * t M H y x                                         ",
"                                  ! H y V H $ x 5     ~ t t ~ * * ~ V C * M ~ * M H N V                                         ",
"                                  ,.n < M < j n 5     5 ) t G ~ V n $ H C $ M M N n n                                           ",
"                                  3.< < n < & $ M     P t * ~ M M H $ n H $ V n j $ V                                           ",
"                                  ,.x j < $ 1 & x     * G M G ~ C < < V $ j C < 1 y                                             ",
"                                  x y q H < # m V     5 V x V   N & & n < j H & k x                                             ",
"                                  V $ j H & o m ~     V H x ~   y 1 1 y < j H k e V                                             ",
"                                  C < j C & o m       V C V     y m m < < < N 0 <                                               ",
"                                  C < < C k D k     ~ V C V     $ 1 m < k $ $ e !                                               ",
"                                  C < 7 n 1 z q     M M V 5   5 < 1 & < k 7 0 $                                                 ",
"                                  C & j n 1 o .     G G ~ ~   x < & < < . < & <                                                 ",
"                                    0 < H m o y   ~ ~ V P     C j & n j q $ 7 !                                                 ",
"                                    0 7 y k k n   ~ V V V   5 y & 7 C & j y 7 !                                                 ",
"                                    j < $ & <     5 V P ~   C < & x C & $ $ 0 <                                                 ",
"                                    y y H & 7   C $ < x   5 n & j n 7 & n j k n                                                 ",
"                                      y $ & y   x + e n   V y & y < 0 & x 7 k N                                                 ",
"                                      V n y V     & & y   5 y < n < $ n n n & <                                                 ",
"                                      n V $ C     n N y P   x < y   y < x < j & V                                               ",
"                                      x V < 7       ~ 5 V H V 7 y   ! y x < $ & V                                               ",
"                                    V n n & e         ~ 5 n C $ <   V ~ V C y 7                                                 ",
"                                    x H V & q             V n < 7 < x y P 7 0 x                                                 ",
"                                  P x V   & q               V $ < n x y n & y                                                   ",
"                                  V P     q &                 7 N C $ H $ < 5                                                   ",
"                                C V V     e q                 y x   x x n M                                                     "
};
