/* XPM */
static char *_572645792784[] = {
/* columns rows colors chars-per-pixel */
"64 86 112 2 ",
"   c #FC00FC",
".  c #986444",
"X  c #8C5438",
"o  c #844C30",
"O  c #A06C48",
"+  c #905C3C",
"@  c #544440",
"#  c #5C4C44",
"$  c #302420",
"%  c #3C302C",
"&  c #C0B8B8",
"*  c #D4CCD0",
"=  c #9CB8DC",
"-  c #6880AC",
";  c #6C6064",
":  c #947C70",
">  c #CCC4C8",
",  c #887C80",
"<  c #28201C",
"1  c #242020",
"2  c #4C4038",
"3  c #483C34",
"4  c #403430",
"5  c #704028",
"6  c #B89068",
"7  c #BC9870",
"8  c #AC7C58",
"9  c #B08460",
"0  c #644418",
"q  c #585050",
"w  c #383434",
"e  c #0C0C08",
"r  c #28140C",
"t  c #A89CA0",
"y  c #988C90",
"u  c #403C3C",
"i  c #4C4848",
"p  c #60585C",
"a  c #746C70",
"s  c #A09498",
"d  c #301C10",
"f  c #18140C",
"g  c #78442C",
"h  c #C4A078",
"j  c #9C8478",
"k  c #54301C",
"l  c #201C18",
"z  c #B8B0B4",
"x  c #94888C",
"c  c #180C04",
"v  c #64544C",
"b  c #CCAC80",
"n  c #8C7468",
"m  c #C8BCC0",
"M  c #806C60",
"N  c #342C28",
"B  c #786458",
"V  c #6C5C50",
"C  c #A87450",
"Z  c #603420",
"A  c #4C2C18",
"S  c #A88C7C",
"D  c #1C1414",
"F  c #ACA4A8",
"G  c #683C24",
"H  c #D4B0A4",
"J  c #E4E0E4",
"K  c #C8AC9C",
"L  c #E0C4B0",
"P  c #C0A494",
"I  c #B49C8C",
"U  c #B0ACAC",
"Y  c #442418",
"T  c #D4B08C",
"R  c #0C0404",
"E  c #AC9484",
"W  c #E0D8DC",
"Q  c #F4F0F4",
"!  c #807478",
"~  c #242C48",
"^  c #040404",
"/  c black",
"(  c #3C2014",
")  c #202010",
"_  c #440C04",
"`  c #AC280C",
"'  c #D83414",
"]  c #C83010",
"[  c #B82C10",
"{  c #101420",
"}  c #E06830",
"|  c #D84018",
" . c #DC5C28",
".. c #EC9048",
"X. c #601404",
"o. c #181818",
"O. c #8C200C",
"+. c #180400",
"@. c #9C240C",
"#. c #100C08",
"$. c #040400",
"%. c #801C08",
"&. c #D84C1C",
"*. c #CC3018",
"=. c #701808",
"-. c #541004",
";. c #D8D4D8",
":. c #ECE8EC",
">. c #201008",
",. c #282818",
"<. c #545434",
"1. c white",
/* pixels */
"                  . X o o O . + + X @ # @ @ $ % $ @ & * = - @ ; ; # # : > > , $ $ < 1 2 3 3 @ 4 5 o + 6 7 6 8 .                 ",
"            O O 8 9 + o o o o o o o X + 0 q w e r , & t y ; 3 u i i p a s & t d f < 4 2 o o o g 5 X 6 h h 7 6 6 9 X             ",
"        X j 9 6 9 9 6 . o o o 5 5 g X . k r w l 2 t z t y x q q q 4 3 p ; x a 3 c w < v X X o o X 9 h 7 b b 6 8 h 6 9 X         ",
"      o n 9 7 h h 8 6 7 6 8 X o 5 o 5 j v r < < i m > n a s 3 3 i 2 4 s M j : ; $ N r M B o X 8 6 b h h h h h 9 h 9 . : +       ",
"      V + h C + . B o . h h h 6 X X 5 y s Z A d ; m S # % $ l r r D c D # : j ; d 3 o F n o 6 h h b b 6 6 6 7 6 6 . # X #       ",
"    g . V . G G X O n O 8 H h b 6 O o j J V 5 : K L K n % r d l d r c c 2 P 9 > G G I J + C h H h H h h h h h h 7 9 9 0 A G     ",
"    @ + v g Z X 6 b 8 9 C 6 7 h h 6 . M U p 3 Z n > K m $ D r D D D c c 0 I U n Y @ a U C h 9 6 b b b 7 6 h H h 6 9 C n G 4     ",
"    4 o g A g g . 8 C O 9 6 H h 7 9 C g u q Y Y P M s @ d D c D c c c c Y : H : d 2 i u 6 b h h h h h h C 9 T 6 8 . X M G $     ",
"    4 V . k G g O 6 6 9 9 C 9 h K h 8 6 M 4 r 3 z n 2 c r r c c c c c c d : 6 6 4 d @ + h 7 K h h h 7 9 9 9 b 9 C 9 V V Z $     ",
"    2 . v % $ C 7 6 9 6 9 C 6 6 U P C 9 9 o g n S n X Z Y r R c D D c c G G n I G 5 h 6 O 6 m 7 C T h 9 C 6 H 8 8 9 V v # <     ",
"    Y @ v A 2 6 6 9 n 8 8 H 7 9 & K h C O o h h j X 0 Z d r c r D r r d G g o E + + h K 8 + z z 8 9 C X O X C . O O v v g $     ",
"    A @ o k . 6 8 h : 9 C h h 9 * z . . + g 6 C O . . Z d d d d d c r d Z . . O 8 C H h C . & & 6 h C 8 2 A 5 + n C V V % $     ",
"    k # # k + 9 8 6 C 9 O 7 h 9 z > F 9 6 + O . O . G A A Y d d d D d d Y g . . o . 6 6 . U W U 6 h 6 O O 8 v G v 8 C v l k     ",
"    N 4 # k 0 9 X O O O 9 9 h 6 t Q s q v G Z o O o G Z Y $ d r r r d d d G C 8 o G o + @ s Q s 6 b 7 h h h . 0 g 8 6 B A Y     ",
"    2 $ 2 2 G 8 . 6 9 9 9 9 9 9 x & q @ 3 Y d 5 O O G k Y d d r r d d d Y A G O g d d 3 q ; > ! 6 h 6 8 8 C O Z 0 C . 2 $ A     ",
"    2 $ 3 v # . . 6 9 8 n O 9 . q u q p % Y d g C . Z Z A Y d d d d $ Y Y d d . g d d N p i u V 6 6 9 C C . . g Z 0 . 3 N $     ",
"    2 $ X X v B . C C O . C C O g ~ i 3 d $ d . 8 C g k Y d d d d r d Y d d A . X d d d i i < + 6 9 9 8 C C n X A A . o 4 %     ",
"    Z G C 9 + V . 8 + . n . 8 8 g $ f c d d Y O O O . Z Y $ d r r r d d r o o . . d r d d l $ v C O . n O . . + A A C . G 4     ",
"    @ # V . 9 n v O + B o G Z k 3 Z A r ^ c g O . . . G A d d d r D c D A . . X . g c ^ / r # g g o o X . + M v V o 8 + v 4 l   ",
"    2 # C . . h + V M Z r Y A A A A + O 5 G X O . X . o 5 A Y d d d d r Y X X o o o Y r G o Z Z Z Z k A 5 g . V 0 3 B X # 4 <   ",
"    % 3 X O B C 9 X 3 r d A Z A A A A O O . . . X o X o g Z A A $ Y o g 5 5 o o X . o O O Z d A A k A ( d ( G + 0 B . X # N l   ",
"    $ 4 2 v . V X . d d A G G A A A Y G . + . X o o o o X o g A d G o 5 o X . C C C O C o d Y A A A A Z Z ( d o + M O B G % D   ",
"    l N 2 # + C V # Y A Z 5 G Z Z Z A A X X . . 5 Z Z g X X g g G g o . . X o o . . O X G d A k G Z k Z G Z ( G . B V # 2 Y     ",
"      $ Z o . + C A d A G 5 G G G k k G g g o O . o 5 5 g g o g 5 o X X o 5 5 X + O . o Z Y Z G g g 5 5 g G ( G + v 2 2 N D     ",
"      l $ 2 + V C A Y A k 5 g G Z A A G G G o O 6 6 8 9 9 8 C 8 C 9 8 C C O C 9 C C X G 5 Z Z G 5 g g G G G Y A v # 3 $ l       ",
"        l % 2 v B # d A G G G Z Z k Z G A g X X g o . C O 6 9 6 6 6 6 9 O Z o . O O o Z G g Z Z G g g Z 5 ( $ 2 v 2 $ l D       ",
"          ) N 2 v B % A G Z A Z Z Z 5 Z Y Z G G 5 g A c _ _ r Y Y d k Y d Y g o g o g G A g o G Z Z g G g ( 3 # 4 $ l D         ",
"          D $ % # V A G G Z G G g o G Y Y Y A 5 5 g ( ` ' ] ] ' [ ` ` ' [ A G G A Z Z g Z Z g g 5 Z G 5 o k 3 2 d d {           ",
"            l $ 4 2 Z G Z g g g o g Z 5 Z A d k Z G Z ' } | [ ' ' '  ...' X.Z d Y Z g . 5 Z G g g Z g Z o g Y % d o.            ",
"              l % % Z Z Z g g G 5 A G X + . Y d Y Z G ` [ ` [ [ [ ` ` [ O.Y Y +.Y Z o O 5 A Z Z G g X g 5 g Y $ o.              ",
"                D l Y G g o g G G A Z o + C o A Y Y Z G 5 @.O.O.O.O.@.G G o Y A 5 5 o o Z k Z Z Z o o + o A l <                 ",
"                  D l Y A g . o G A Y G X G A Z k Y d Y Z d Y k Z Y ( o X Z A Y Y A A # 5 Y A Z 5 o o o Z r d                   ",
"                    e d Y 5 X X Z Z Y k G O.[ [ ] ' O.d d A Y ( ( Z Z o A A Z @.] ' ] O.A r k Z G X g d d r #.                  ",
"                    $.R c G o o Z Z 5 Y %.` ' } &.' &.' Y d o r r 5 g d 5 ` &.} ' ' ' *.O.Y A Y G + Z r d c $.+.                ",
"                    R c ^ Y G g G k 5 g ( X.` *.*.*.' } ` =.A d d Z Y =.`  .&.' *.[ @.X.5 o d k o o Y R R +.+.$.                ",
"                  c e c c d Z o Z Y A g Z ( X.O.` *.*.[ [ @.Y Z r Z ( @. .*.*.[ @.=.X.g . Y d g o G d c c c e +.                ",
"                  r d D c c Y G Z d Y Z 5 g 5 Z X.X.=.=.X.Y ( Y r Z ( ( X.=.=.-._ Y o + Y d Y Z A Y c c c c c l                 ",
"                A 5 o Y c c R R R R r r k o o o 5 Z Z A Z o o o X o o 5 A A Y A Z o o G Y $ r +.R c c c c A 5 o X               ",
"              o . O O C G c r c c r d d r A g G G G 5 G g o X . O . O . o G Z Z G G g # Y d d c r r c r X 8 C . X o             ",
"            X O O O C C X d d r c r Z Z Y r d 3 Z 2 G Z V X o + + X + X g k A Z A d d Y Z G Y r d d r Z O C C O O O X           ",
"          g + O X . O O g k Y d d Z 2 w % A r $ u 4 ; < y a 4 M i q ; ; 3 x l u f R Y 3 4 2 o Y d d d Z o O O . O O . 3         ",
"        k X . + g . O o o Z A d d k ! F i $ k D 3 c q e ! ; w a f u @ 4 N q R N R r Y N a s # ( Y d r d g + O X o . X o         ",
"        5 . . . o O . g G Y Y $ < l a ;.> @ g d < d < R < 3 c < R R < c R R < r Y Z A y :.F N l < l c r G o . . . O O + o       ",
"      5 o . + o o X g A $ l l ( % $ i U J s G G r p 3 < R R R R D R ^ R c i ! 4 Y Z B ;.* v $       >.l A Z X . . . O X 2       ",
"      g g + O X o g A $           % l ; z ;.M ( r q ! a c < 4 $ a c p c ; , ; k r V * * x 2               ( 2 o . . O g k Z     ",
"      o G g X X G A               r r l q t J z 2 4 ; & 2 N , i s N s c t p % ( x J & ; 4 $                 N G X O 9 C X o     ",
"    2 A % 3 2 V v $               d r r d % q s & : q F s V x p y i s 2 U v V F & a N d ( l                   o . . 8 8 o Z     ",
"    d d A G V j : @               r r r D d >.r Y M : x F : ! C n n , n y X 9 # d d >.r D (                   . O o # # d f $   ",
"  2 ,.d 3 Z j K j X               D c r c l r r r >.5 X + C X C X X o 8 # X Y c r d r r r d           2       X o Y k # v $ d   ",
"  2 w % v q F z x x # V x t         >.c c D r r d r A O 8 9 9 8 . O X h C 5 c r r D c r f             V V @   j B , x F t # a @ ",
"  2 <.d ; * U > t , > > B           f >.c c c r r r d o 8 8 8 9 6 6 6 9 O Z r D D c c r f               v s z F & > ;.> a 2 a @ ",
"  @ x 4 N > F x , ! v 3             r c c c c D r D r Z . X . 8 8 O X X g A r c D c D r D                 3 ; a y y > x u 3 q 2 ",
"  2 i p 4 ; & p a 3                 l f r c c c D D r d % A A Z 5 Y $ $ Y $ D D c c D d l                     3 q s a p i i i 2 ",
"    Y u ; @ @ 3                       < Y l c c c c c l % % Y < 2 % < d d d D D c r d Y $                         2 5 q q q i   ",
"                                      A Y d c D D c R d Y $ d $ % 2 l d d l r l d l % 3 A                                       ",
"                                      A $ d D D $ c ^ D d $ d l N 2 f d l r l A 3 l % 2 k                                       ",
"                                      A 3 3 d D Y r c d 2 G $ d   % $ G 3 % $ # # Y Y 2 G                                       ",
"                                      4 G # % ( Y l r 2 V v %     Y v B # A $ G # 3 $ 2 G                                       ",
"                                      2 # v % 2 ( f $ v # N N   $ A v M # N N 2 # 2 A # 4                                       ",
"                                    $ 2 o V 4 2 l D 3 v 2 d     $ % v n @   4 @ G 3 k @ 2                                       ",
"                                    Y # + @ % N < d G v 2 $     $ % # B 2   4 4 G 3 3 2 2                                       ",
"                                    k V V $ < Y $ d k % $ d       A G G $   4 4 3 A k 4 2                                       ",
"                                    Z B 2 l d A Y l $ Y $ l       N % A $ ( Z 3 3 3 3 4 %                                       ",
"                                    Z V A r Y 2 N $ $ $ d d D     $ N Y A $ 3 3 Z 3 Y 4 N                                       ",
"                                    Z v d d G G 4 2 2 $ A A l     N k 4 3 A 3 2 G 3 Y 2 A                                       ",
"                                    % 4 d N # # 5 a G G 2 3 $     % # v # 3 A # # d A # k                                       ",
"                                    l $ d # + # % 2 # X G %     N 3 o o 2 r 3 B 3 $ # 2 Z                                       ",
"                                      $ d v . # 2 4 n . 4 %     4 @ X g d $ X v Y G X v 2                                       ",
"                                      d $ + . g   g S n %       Z v + 2 l V M Z 4 V X v 4                                       ",
"                                      < N X B o 2 n 9 B N       G + + Y A X v   4 V . @                                         ",
"                                      l % + B 2 2 n j v 2     N # B V d 3 + #   Z + M G                                         ",
"                                        % . v 2 2 n : # 2     N @ . g N 2 . g   Z + B 4                                         ",
"                                        $ + B 2   B n # %     N # B 5   G B v   G + V 4                                         ",
"                                      l < o B G   @ B o 4 2   N v M G   Z . v $ G B v 2                                         ",
"                                      < l G o #     G # G 4     # : #   2 n B N Z v @ %                                         ",
"                                      d l A g # 3   2 # # 2 k   Z B #     V V % Y o v N                                         ",
"                                      $ $ A # o v     % Z Z N   Z # 2 N   o V A % v 5                                           ",
"                                    < N < <   v # 2     2 $ $   < o 2 %   3 v Z A # k                                           ",
"                                    ( % %     4 2 A     % $ d     2 4 %   Y A $ Y # N                                           ",
"                                    Y 4 k       N N     < $ $     % $     $ Y >.$ 2 <                                           ",
"                                    l % Y A     $ < $   $ $ $     k $     $ Y $ N <                                             ",
"                                      < $ $ <     $ $     l $     N $   N < d <                                                 ",
"                                        < $ $     $ d     o.$     $ $ $ d $ N                                                   ",
"                                          $ $ l     o.    { $     % $ d $ l                                                     ",
"                                            < <           l       $ l Y l                                                       ",
"                                            D <                   D <                                                           "
};
