/* XPM */
static char *_572645722987[] = {
/* columns rows colors chars-per-pixel */
"66 91 138 2 ",
"   c #FC00FC",
".  c #483C34",
"X  c #8C7468",
"o  c #704028",
"O  c #201008",
"+  c #0C0C08",
"@  c #302420",
"#  c #4C4038",
"$  c #4C4848",
"%  c #342C28",
"&  c #3C302C",
"*  c #28201C",
"=  c #8C5438",
"-  c #60585C",
";  c #201C18",
":  c #986444",
">  c #C4A078",
",  c #B49C8C",
"<  c #806C60",
"1  c #887C80",
"2  c #6C6064",
"3  c #403430",
"4  c #6C5C50",
"5  c #844C30",
"6  c #3C2014",
"7  c #28140C",
"8  c #603420",
"9  c #905C3C",
"0  c #A06C48",
"q  c #AC7C58",
"w  c #A87450",
"e  c #AC9484",
"r  c #5C4C44",
"t  c #1C1414",
"y  c #C8BCC0",
"u  c #ECE8EC",
"i  c #D4CCD0",
"p  c #B0ACAC",
"a  c #9C8478",
"s  c #78442C",
"d  c #683C24",
"f  c #442418",
"g  c #54301C",
"h  c #B89068",
"j  c #644418",
"k  c #180C04",
"l  c #A09498",
"z  c #B8B0B4",
"x  c #ACA4A8",
"c  c #94888C",
"v  c #585050",
"b  c #403C3C",
"n  c #807478",
"m  c #C0B8B8",
"M  c #101420",
"N  c #64544C",
"B  c #4C2C18",
"V  c #301C10",
"C  c #CCC4C8",
"Z  c #A89CA0",
"A  c #746C70",
"S  c #544440",
"D  c #786458",
"F  c #340804",
"G  c #947C70",
"H  c #E0C4B0",
"J  c #BC9870",
"K  c #B08460",
"L  c #280400",
"P  c #440C04",
"I  c #541004",
"U  c #601404",
"Y  c #D8D4D8",
"T  c #E4CCA8",
"R  c #D4B0A4",
"E  c #8C200C",
"W  c #801C08",
"Q  c #C0A494",
"!  c #988C90",
"~  c #A88C7C",
"^  c #701808",
"/  c #9C240C",
"(  c #AC280C",
")  c #B82C10",
"_  c #C8AC9C",
"`  c #38446C",
"'  c #D83414",
"]  c #C83010",
"[  c #DC5C28",
"{  c #E47838",
"}  c #D84C1C",
"|  c #D84018",
" . c #E06830",
".. c #F0B864",
"X. c #D8B8AC",
"o. c #CCAC80",
"O. c #F0A050",
"+. c #E88440",
"@. c #EC9048",
"#. c #D4B08C",
"$. c #E0D8DC",
"%. c #F4C474",
"&. c #F0AC5C",
"*. c #DCC49C",
"=. c #F8D88C",
"-. c #F8E094",
";. c #FCF0AC",
":. c #F4D07C",
">. c #F8E8A4",
",. c #0C0C18",
"<. c #0C0404",
"1. c #040404",
"2. c #CC6818",
"3. c #B45404",
"4. c #804000",
"5. c #583000",
"6. c #341C00",
"7. c #6C3800",
"8. c #442800",
"9. c #18140C",
"0. c #A45000",
"q. c #180400",
"w. c #040810",
"e. c #040400",
"r. c #904800",
"t. c #D47430",
"y. c #0C0000",
"u. c #C85C04",
"i. c #E4E0E4",
"p. c #383434",
"a. c #6078A8",
"s. c #B4D4F4",
"d. c #A4C4E4",
"f. c #2C282C",
"g. c #5C70A0",
"h. c #344064",
"j. c #242020",
"k. c white",
/* pixels */
"                                        . X o             O + @         # $ $                                                       ",
"            @ @ % % & & & % % @ *       = - @ ; : > , < 1 2 3 % 4 : = 5 6 7 -     $                                                 ",
"      8 5 9 0 q = 5 5 5 = 9 w w : : 5 . e r t . y u i 1 - r 2 2 # 4 , y p $ * # = a . = 5 9 s s s 5 d f g f                         ",
"    s = q h : 0 w 0 9 o 5 5 5 5 5 s j # # $ k 3 l z x c 2 v b 3 3 3 - n m n t M # - d N = 5 5 o B 6 6 B f B d B g                   ",
"  o 0 = d = : s f V B 8 o 5 o 5 5 o s - k % * 2 m C Z A x N $ 2 S & - < n D . t % V g 9 9 5 = 6 6 f 8 g f g 9 8 d g                 ",
"6 5 s 8 s : o B 6 g 6 7 f g s 5 5 5 = l V V @ v C C X v A 3 % & 3 % - X D a v V & & d e = = f 6 6 8 g f 6 g s B 5 8 g               ",
"g 5 d s : 9 B 8 5 f V V 7 F f d 5 5 = i D d r G H J X . @ V 7 t k t k & G G G # B s G m = 8 F F B 6 7 7 B o B B o 8 g               ",
"8 d d 9 K 5 8 o f 7 L P I U I g o = = Y l r X e T R J N k V V 7 7 7 k 7 l K R 4 8 4 Y z o F F F F I F P F B V 6 8 s g B             ",
"d g 6 5 J 5 g g 7 I P U E W W U B 0 s 1 2 v 6 d Q x H < 7 7 7 k t k k f < Q Z 8 g v ! ~ ^ U I I ^ ^ I I F F 7 6 B o 8 B             ",
"g 6 O B q : o f P I ^ / ( ) / E E ~ w # $ . 7 l a < - t 7 t k t k k k k # J _ N V S ` N ( / ^ ^ E / W I U I P V f 8 d B             ",
"6 g B V s q 9 g I U / ^ E ' ] ( ( , q h N B V a a < f V V t k k k + + t . ~ K X 7 3 5 [ { } ] ( W ) [ | ( W U P L 6 d f             ",
"g f L g 8 : K 0 s / ) ( / [ [ ' A _ 0 h 9 = q , ~ 9 5 . B k k k O k + V s d e G g q  . .}  .q n ) | { { ] ( E I I F 6 V             ",
"f f g 5 ^ ( 9 J J w  .)  ...{ { l X.0 w s 0 o.~ : s d f 7 k k O k O k f 5 s = a = 0 O.[ { +.> m |  .} { ' } ( E I F 6 7             ",
"V B d B /  .| K T T J [ ..@.[ +.p Y X K s : q 0 0 0 = V V 7 O k O k k f d 0 9 0 = [ @.+.O.w c C [ +.+.[ |  .} ] ^ P 7 O             ",
"V g g ^ [ ( | { #.T T  .+.}  . .Z $.c w : 0 : 0 0 5 8 B B O k O O k O @ f s 0 : 5 { %.&.&.n m C O. .&.&.{ @. .' E P F               ",
"  8 U E E ]  .{ > #.*.O.O.{ &.@.1 y Z $ # B g : : 5 d 8 f O 7 7 O O O V V s w w 5 O.%.< - l C Z +.O.{ +.&.[ @.[ ] I F               ",
"  o U ^ / } { [ O.O.=.O.@. .+.@.2 l l - 3 V f 5 q : d 8 V 7 V V O 7 7 @ f B s : d V V . 2 p l #.%.O.-.-.%.+. .{ ( U F               ",
"  o I U ' [ | | } %.+. .@.O.&.%.$ 2 1 v V V @ 9 K = 8 8 B V 7 V 7 7 7 f f V @ : s @ f 3 n A $ #.;.:.%.=.-.&.{ ] / U                 ",
"  d U W  .[ ] } { O. .O.=.-.>.%.8 % $ & V V f w q w s B f V V V 7 7 V f V V B : 5 V f $ 2 v % ;.:.%.=...@.O... .] ^                 ",
"  8 ^ / { } { [ @.{ ..>.>.&.+.[ d @ ,.<.7 7 8 w w 0 : 8 f V V t 7 7 V V 7 g 5 0 0 f V V @ % @ %.;.;.;.=...+.O.@.| W                 ",
"  8 W ) [ { { [ { &.%.O.9 d B 8 8 8 B 7 1.V = 0 : : = d g V V V 7 t 7 7 f 0 = = : o k <.<.k d d 5 q %.;.=...{ +.} W                 ",
"  B W ' [ { [ +.O.=.{ B 7 f B f B B 5 0 5 5 : : = = : 5 d B f V V V V 6 d = 9 = 5 5 V 1.B 5 s d 8 8 8 w =.:.@.[ } W                 ",
"  3 ^ ) [ } [ +.O.O.@ 7 V B 8 B 8 B f s w 9 0 : 5 5 = 5 s d B B f B g s s o s s 5 = 5 : w 5 f B . g f V 5 ;.%.{ ] W                 ",
"  @ ^ E ) } '  .&.5 7 V f 8 d 8 8 g B B = : : 0 5 5 s 5 5 5 o f 7 8 = s 5 5 = 0 0 0 0 w 0 8 V f B B 8 B f : +...( ^                 ",
"  P U / E ) ' @...B V f B 8 d 8 8 8 d B 5 9 : 0 9 o 8 d 5 = 5 o 8 s o 5 : 0 : = 0 0 : : s f f B 8 . B f g f  .| / U                 ",
"  @ I E ^ E } +.+.f V B 8 8 d d d 8 8 d s o s 9 0 5 8 g 8 s 5 s d d 5 = = 5 o 8 5 = : = o f B 8 d d 8 g 8 B } ] E U                 ",
"  t P U I U ( } ' g f B 8 8 d 8 8 8 g d 5 s s s 0 K w = = : = 5 5 = 0 = 5 9 : 0 q 0 w = s g 8 d o s d 8 8 8 s w (                   ",
"    * F U ^ W / ' / 7 f 8 8 d 8 8 8 g o o 8 5 = = = s : w w q 0 q w q q w 2.3.: 0 w 0 5 8 d 8 8 8 o d 8 8 f f @ ;                   ",
"    t P P ^ ^ E ( / V f B B B g 8 8 o = 8 8 d d 8 8 s 4.5.6.6 f 8 d 7.5.5.8.8.o 5 5 = s 8 8 5 d 8 8 d 8 d V & V                     ",
"      t F I U ^ E / B d 8 g 8 s s = = 8 f B B 8 o s 4.5.E  .+.} W ( } O.+.^ B 4.o 8 8 d o g s 5 o 8 8 8 s f *                       ",
"        F L P ^ U / 8 o d d s 5 5 = s 8 o 8 f f 8 8 d B [ %.-.-.:.=.:.:.:.{ 8 5.f f g s 5 8 8 s s 8 g g 5 8 *                       ",
"          7 L F U I 8 g 8 s d o s d 8 5 = 9 5 f V g 8 8 | %.-.-.=.=.=...O.| U 7.k B d : : 8 B 8 8 s s d o .                         ",
"            V 9.; @ B 8 s s 5 d 5 8 B d 5 : : s B f g 4.d | { O.O.O.+. .| 8 4.7 6 8 8 5 9 8 g 8 8 s 5 5 o &                         ",
"              6 ; V f f B o : : 5 8 g f 5 = s f 6.6.@ V 7.7.f f B f f f s 5 d 4.5.7.8 d o 8 f B g s 5 : j @                         ",
"                * + 7 f f d 5 : s 8 8 f o o E { O.@.} ^ 7 5.0.8.V B f g 3.8 @ f ^ } { } W 6 V 8 8 = 5 f 6                           ",
"              @ t q.<.k k B 5 = 5 8 d 8 f ( { %.;.;.;.&.[ I 5.4.6.7 8.4.V 6 ( +.:.;.;.%.| U @ B f 5 s V 7 w.                        ",
"              * + k k k 1.f s s 5 d 8 5 8 I / O.;.;.;.>.>.+.I B 7.8.d g I [ ;.;.;.;.;.:.W 8 8 V 8 5 8 <.q.e.                        ",
"                * t k k k t d s 5 8 B d s g 6 W { %.;.;.-.-.| & r.7.4.6 ( ;.;.;.;.;...I d = f f 5 s V <.q.e.                        ",
"                # & 7 k t <.V d d f f . d o o 8 U ^ |  .{ | 7 5.7.5.0.8.U  .&.&.+.U 6 5 t.f 7 8 s 8 k <.k k t                       ",
"                o 5 o V k k <.y.y.<.V f @ d = 5 = o 8 B V f 0.3.r.4.4.4.B V V f f 8 5 0.8 V V k k k <.k k 7 3 ;                     ",
"              3 = 0 : : 8 k k k t t f B V V d s s s 4.4.r.u.9 5 = = 5 = 5 s 7.4.4.o s s 8 V t k k k k k o 0 : = S                   ",
"            S : : : : = s 7 V f 6 V 7 8 8 V V B d 8 d 8 d s o 8 d d d d d g f f B B B f V 7 k V f f k g 0 0 0 : 4 S                 ",
"          3 : : 9 = = 5 g V d Z l j V f d 8 k * A . 1 # v c # r N S . - 3 v % % . 9.7 7 7 k V 4 , 9 7 B 5 w w w w K #               ",
"        @ # : 5 o o o d g @ l C p n 8 B 8 B k t 2 3 A . $ l % c v $ $ N ; A * 3 * <.k 7 7 V 8 z i.z & 7 s : w : 0 K < #             ",
"        8 5 = 5 s 8 d B 6 2 z l 2 3 6 f 8 8 7 7 % k @ * t 2 7 b k 9.@ p.k * 9.7 k k k 7 V f & a.p Y l f g s : : = q 0 5             ",
"      % # 5 5 s d 8 B V . Z Z 2 @ k 7 B s o V V 7 9.9.k 9.t k <.k k k k k <.k V 7 7 7 V @ @   & r p i 1 f 8 5 = : q h 0 3           ",
"      d d s : s 8 & V 6 2 m n @ 7 k k 7 d s B V V k k k k k k k k k k k 7 k k 6 V f V & 6       & A m m   & j d 5 : q w d           ",
"      3 s s = 5 d @     d p 1 9.9.k 7 7 V B 8 f f 7 k 9.k k 7 V V 7 k k k 7 7 8 B 8 B 8           & p s.    @ f s : q 0 r #         ",
"      . N B B 8 d &       . c A V 7 7 k k 7 f V g f k k k 9.7 . f k <.k k 7 f 8 f B 7 *           # d.1       V 8 = q q : S         ",
"      s f f f B N q         @ S - V t t <.k g f g . 7 7 7 7 V 8 f k 7 7 7 V 8 d B B 6             2 n         f s : 0 0 = g         ",
"    * 3 V B f 4 G a S         @ & V V @ 7 t d d . 2 . f f f f d g f f f 6 # 2 s d j @                           5 : B B g ; @       ",
"    3 * V B @ X G N S       p.@ S @ V @ V t g s s 4 8 V V V B r # 6 7 7 f r < = d B &                           = s @ V g & t       ",
"    @ . & # 3 B G =         # - - % 7 f V k f s j N . V V V V r g V V 7 V 8 : s B t ;                     n     d g B r D c S S     ",
"      r $ @ n ! x y ~ 0 q ~ X 2 3 @ t @ V t V d o v - B f g g r 8 g g f & - 9 8 V + k                     - c 9 v v p z Z 1 v a     ",
"      G D * 2 Y l x x a D   ; ; f.@ t V f 7 t B s D 4 g g d s 5 s o d g 8 D = B k <.<.                      3 a.g.l C ! p 2 . 4     ",
"      b v v p.< < g.2 s     ; ; f.B V V B @ t 7 d 5 = # f 6 g 5 s g f f # 9 = f k <.+                         # d S g.1 1 $ - 3     ",
"        & p.3 3 3 . p.        ; @ & V V # B V k f s v 2 d f g s d g f # 2 = d t k k t                             # o s h.& p.      ",
"                              ; @ @ V ; . . @ t k g N S = d 8 o d o f N $ 5 B <.t V V                                               ",
"                              * @ @ @ V f # f 7 k V d N a 0 = 9 = 5 = K 4 5 7 <.t V %                                               ",
"                                & & @ f V # . ; t t B - A h Z K ~ a , Z ! = k k V B 3                                               ",
"                                B . & 6 f 3 . V t V V 3 r 4 2 X A X 2 4 $ f k t @ 3 B                                               ",
"                                B . . V * & & 7 k 7 k f o o 8 d # 8 d 5 f k k t @ . f                                               ",
"                                B 8 . ; V @ @ t <.t k 7 8 o 5 5 5 5 5 d 7 k k 7 B # g                                               ",
"                                B # . @ V @ @ t ; O k k t V 8 s d . f 7 + k k ; B 3 %                                               ",
"                                & # B V @ B @ 6   ; k + k + * 6 V 7 7 k k t k V B 3                                                 ",
"                                p.B 3 @ B . % *     ; k k ; t t ; @ f t V ; t V B g                                                 ",
"                                f.& # V # d & *     * 9.k 7 ; @ & . B f . V V g & @                                                 ",
"                                j.# # & # r . V     6 k t ; V V B . & B . @ & d .                                                   ",
"                                f.% d # . 4 r %     t 7 V 7 ; f # # @ . d f # 4 3                                                   ",
"                                % 3 s B # : D *     * @ % @   g r r & # d B r N *                                                   ",
"                                @ . d B r X D ;     @ B % ;   3 4 4 3 # d B N o                                                     ",
"                                f # d f r X D     @ @ f @     3 D D # # # g S %                                                     ",
"                                f # # f N G N     @ @ f @     . 4 D # N . . o @                                                     ",
"                                f # 8 & 4 < #     V V @ *   & # 4 r # N 8 S .                                                       ",
"                                f r d & 4 X 3   * 7 7 ;     % # r # # 5 # r                                                         ",
"                                @ S # B D X &   @ ; @ 6     f d r & d s . 8                                                         ",
"                                @ S 8 3 N N *   V @ @ @   ; 3 r 8 f r d 3 8                                                         ",
"                                  d # . r #   * * @ 6 ;   f # r % f r . . S                                                         ",
"                                  3 3 B r 8   f . # %   ; & r d & 8 r & d N @                                                       ",
"                                    3 . r 3   & = o &   @ 3 r 3 # S r % 8 N g                                                       ",
"                                    @ & 3 @   * r r 3   ; 3 # & # . & & & r # *                                                     ",
"                                    * @ . f     & g 3 6   % # 3   3 # % # d r %                                                     ",
"                                    % @ # 8       % * @ B @ 8 3   p.3 % # . r f                                                     ",
"                                  @ & & r o         ; * & f . #   @ ; @ f 3 8 @                                                     ",
"                                  % B @ r s             @ & # 8 # % 3 6 8 S                                                         ",
"                                6 % %   r s               @ . # & % 3 & r 3                                                         ",
"                                @ 6     s r                 8 g f . B . #                                                           ",
"                              f @ %     o s               % 3 %   % % & V                                                           ",
"                              & @       o .               f g     % ; @                                                             ",
"                            * %         . #               6       @ t 7                                                             ",
"                            * V                                   % @                                                               "
};
