/* XPM */
static char *wall[] = {
/* columns rows colors chars-per-pixel */
"64 64 147 2 ",
"   c #1E1C37",
".  c #1F1C38",
"X  c #231D37",
"o  c #211E38",
"O  c #281F38",
"+  c #24223B",
"@  c #2A253D",
"#  c #29283D",
"$  c #3F2236",
"%  c #3E2438",
"&  c #452337",
"*  c #452538",
"=  c #442A3B",
"-  c #492B3C",
";  c #44303E",
":  c #4B313F",
">  c #2C2741",
",  c #2D2941",
"<  c #332D43",
"1  c #2E3043",
"2  c #2C3F44",
"3  c #333145",
"4  c #383347",
"5  c #343F44",
"6  c #4D2F42",
"7  c #502F42",
"8  c #473240",
"9  c #4C3343",
"0  c #4E3845",
"q  c #4E3E49",
"w  c #513345",
"e  c #513847",
"r  c #543648",
"t  c #543A4C",
"y  c #2E4646",
"u  c #2E4847",
"i  c #334446",
"p  c #314748",
"a  c #3A464A",
"s  c #344949",
"d  c #3B4B4C",
"f  c #3C4F51",
"g  c #3E5152",
"h  c #594A4F",
"j  c #434D51",
"k  c #5C4F52",
"l  c #415254",
"z  c #5D5455",
"x  c #5D5857",
"c  c #605656",
"v  c #615857",
"b  c #615758",
"n  c #645C5A",
"m  c #67605E",
"M  c #5E5D65",
"N  c #665F60",
"B  c #666161",
"V  c #696362",
"C  c #65656A",
"Z  c #6B666A",
"A  c #676C6C",
"S  c #6B6A6E",
"D  c #706C6F",
"F  c #70706F",
"G  c #6E6D71",
"H  c #716E72",
"J  c #6E7173",
"K  c #6F7279",
"L  c #767676",
"P  c #787576",
"I  c #777678",
"U  c #787778",
"Y  c #777878",
"T  c #7B797B",
"R  c #7C7E81",
"E  c #857583",
"W  c #887786",
"Q  c #867986",
"!  c #887887",
"~  c #867B8A",
"^  c #8B7C8B",
"/  c #7D8284",
"(  c #8E848F",
")  c #8D848E",
"_  c #8C818D",
"`  c #80898D",
"'  c #8F8490",
"]  c #8F8692",
"[  c #8E8391",
"{  c #8F8A96",
"}  c #918191",
"|  c #908590",
" . c #908491",
".. c #908591",
"X. c #918591",
"o. c #908691",
"O. c #918691",
"+. c #918592",
"@. c #938493",
"#. c #928693",
"$. c #928694",
"%. c #938794",
"&. c #948795",
"*. c #938694",
"=. c #958896",
"-. c #968897",
";. c #968997",
":. c #968897",
">. c #978998",
",. c #968A99",
"<. c #978A99",
"1. c #978998",
"2. c #988A99",
"3. c #988A99",
"4. c #95909E",
"5. c #8793A0",
"6. c #869AA6",
"7. c #889AA7",
"8. c #8C9EA6",
"9. c #899AA7",
"0. c #8F9EA8",
"q. c #87A2AD",
"w. c #8EA3AC",
"e. c #8FA3AC",
"r. c #8EA4AD",
"t. c #8FA4AE",
"y. c #8CA4AE",
"u. c #90A0AB",
"i. c #91A2AE",
"p. c #8FA5B0",
"a. c #92A4B0",
"s. c #90A7B1",
"d. c #91A7B1",
"f. c #90A8B2",
"g. c #95A9B6",
"h. c #95AAB7",
"j. c #96ABB7",
"k. c #94A8B5",
"l. c #93AAB6",
"z. c #93ADB9",
"x. c #94AEBA",
"c. c #95B0BC",
"v. c #95B1BD",
"b. c #95B2BE",
"n. c #96B2BE",
"m. c #97B3BF",
"M. c #95B1BD",
/* pixels */
">.>.>...L C   , L / m.j.>.>.>.>.>.>.>.>.>.>.>.>.>.=.U H @ @ L L m.m.>.>.>.>.>.>.>.>.>.>.>.>.>.>.>.>.T L , o S L j.m.4.>.>.>.>.>.",
"......_ T G O < / ` r.0.' ........................_ T Y @ @ R / r.r.' ..............................T T < O K / 7.r.{ ..........",
"L L L T >.W & t m.j.Y L L L L L L L L L L L L L L T =...- - z.m.T L L L L L L L L L L L L L L L L L ..=.r * 0.m./ L L L L L L L ",
"L L L T ..E & t j.u.L L L L L L L L L L L L L L L U ' ^ - - a.j.L L L L L L L L L L L L L L L L L L _ ..r * 5.j.R L L L L L L L ",
"L L L L L Z & r >...L L L L L L L L L L L L L L L L L L * - ..>.L L L L L L L L L L L L L L L L L L L L 9 * W =.T L L L L L L L ",
"L L L L L Z = t >...L L L L L L L L L L L L L L L L L S = 8 ..>.L L L L L L L L L L L L L L L L L L L L 9 = ! >.T L L L L L L L ",
"L L L L n z y l >...L L L L L L L L L L L L L L L L n x s s ..>.L L L L L L L L L L L L L L L L L L n n s s ~ >.T L L L L L L L ",
"L L L L n z y l >...L L L L L L L L L L L L L L L L n x s s ..>.L L L L L L L L L L L L L L L L L L n n a i ~ >.T L L L L L L L ",
"L L L L n z y l >...L L L L L L L L L L L L L L n n n x p s ..=.L L L L L L L L L L L L L L L L L L n n - * ! >.T L L L L L L L ",
"L L L L n z i j >...L L L L L L L L L L L L L L m n n x i a ..=.L L L L L L L L L L L L L L L L L L n n 8 = ! >.T L L L L L L L ",
"L L L L n z & r 2...L L L L L L L L L L L L n n L L n c * - ..>.L L L L L L L L L L L L L L L L L L n n s s ~ >.T L L L L L L L ",
"L L L S z h * 9 .._ T T L L L L L L L L L L n n L F z k * = _ ..T T L L L L L L L L L L L L L L L L b z i y ! ..R T L L L L L L ",
"n n n z * % . , L T >...L L n n n n n n n n n n n c * * o @ L U =.=.U L L L L L n n L L n n n n n n - * o o S L ..>.T L L L L L ",
"z z z h * % . , G H ^ ! J S z z z z z z z z x x z z * % o @ Z S ^ ^ H D D S S S z z S S b z z z x x = * o o M S ! ^ H D S S S S ",
"y 5 & $ . . o o . o * = y y . .     . @ y y y y * * o . o o o o * * * * * * o         O * * * * i y @ . o o     * * * * o o o o ",
"g d 6 6 , , > , , < 6 9 f d @ @   o @ , g g f d 6 6 , > > > , , - - 6 6 6 6 @ @ . o @ @ 9 9 9 6 d f , > , , , , 6 6 - - @ o @ @ ",
"m.j.2.2.2.2.2.2.2.2.2.2.>...L G   @ L T m.m.>.>.>.2.2.2.2.2.2.2.T T =.2.2.>.T T @ o L T j.m.>.2.>.>.2.2.2.2.2.2.2.2.T U <   C L ",
"j.u.........................T H O , T / j.a.....................L L ........T T @ o Y R r.j.>.......................R T 3 o C L ",
"Y Y Y Y L L L L L L L Y L T =.^ & 9 z.j.T Y Y L L L L L L L n n n n L L L U ..=.- * p.z.T Y L L L L Y Y L L L L L L ..=.t * Z L ",
"L L L L L L L L L L L L L T ..^ & 9 z.a.Y L L L L L L L L L Z Z n n L L L L ....- * u.z.T L L L L L L L L L L L L L _ ..t * Z L ",
"L L L L L L L L L L L L L L L H & 9 =...L L L L L L L L n n ....L L L L L L L L - * ..=.T L L L L L L L L L L L L L L U r * Z L ",
"L L L L L L L L L L L L L L L S * 9 =...L L L L L L L L n Z ....L L L L L L L L = = ..=.T L L L L L L L L L L L L L L L 0 * Z L ",
"L L L L L L L L L L L L L L n x y f ....L L L L L L n n ....L L L L L L L L n n s y ' >.T L L L L L L L L L L L L L m n d y A L ",
"L L L L L L L L L L L L L L n x u g ....L L L L L L n N ....L L L L L L L L n n p i ' =.T L L L L L L L L L L L L L m n d y A L ",
"L L L L L L L L L L L L L L n x y f ....L L L L L L L L L L L L L L L L L L n n * * } =.T L L L L L L L L L L L L L m n d y A L ",
"L L L L L L L L L L L L L L n x y g ....L L L L L L L L L L L L L L L L L L n n = * ..=.T L L L L L L L L L L L L L m n d y A L ",
"L L L L L L L L L L L L L L n x y g ....L L L L L L L L L L L L L L L L L L n n - * ..=.T L n n L L L L L L L L L L m n d y A L ",
"T T L L L L L L L L L L L L c z y f ....T U L L L L L L L L L L L L L L L L n c * * ^ ..T T m n L L L L L L L L L L n c a y A L ",
"=._ L L n m L L n n n n n c * * o , Y T ....L L L L L L n n n n n n n n n n - * o o L U ..=.T L n n n n n n n n n n : * @ o C L ",
"..^ L S v n L S z z z x v z * * o @ L Y .._ L L L L L L n z z z v v v v n z = * o o S L _ ..Y L n n x x z z z z v v - * O o C L ",
"- ; s i * * @ @ o o o @ * * o o o o @ @ = - * * = * @ @ o o o o * * * = i i o o o o @ @ = - i s i s @ o o o o o * * O o o   o @ ",
"* = y i * % o o . o o o * * o o o o o o * * * * * * o o o o o o * * * * i y @ o o o o o * * i y y s @ o o o o o * * @ o o o o o ",
"=.=.=.=...' L C   , L R z.j...=.....=.=.=.=.=.=.=...L G @ @ L L z.z.>...=.=.=.....=.=.=.=.=.=.=.=.=.T L , o Z L r.z.>...=.....=.",
"=.=.=.=.=...L S O < Y / z.j.=.=.=.=.=.=.=.=.=.=.=...T L @ @ Y T z.z.>...=.=.=.=.=.=.=.=.=.=.=.=.=.=.T L , o S Y r.m.>.=.=.=.=.=.",
"U U U U U T ..! & t z.p.T T U U U U U U U U U U U T ....- 6 j.z.T T Y Y U U U U U U U U U U U U U U ....r * 6.z./ Y U U U U U U ",
"L L L L L T ..! & t z.a.L L L L L L L L L L L L L T ....- - j.z.Y L L L L L L L L L L L L L L L L L ....r * 7.m./ L L L L L L L ",
"L L L L L L T D & r >.=.L L L L L L L L L L L L L L T L - - ..>.L L L L L L L L L L L L L L L L L L T T 9 * ~ >.T L L L L L L L ",
"L L L L L L L S & r ....L L L L L L L L L L L L L L L H = - ..=.L L L L L L L L L L L L L L L L L L L L 9 * ! >.T L L L L L L L ",
"L L L L L L n z * r ....L L L L L L L L L L L L L L n n i s ..=.L L L L L L L L L L L L L L L L L L m n - * ! >.T L L L L L L L ",
"L L L L L L n z * r ....L L L L L L L L L L L L L L n x s s ..>.L L L L L L L L L L L L L L L L L L n n - * ! >.T L L L L L L L ",
"L L L L L L n z p l =...L L L L L L L L L L L L L L n c = - ..>.L L L L L L L L L L L L L L L L L L N n s p ~ >.T L L L L L L L ",
"L L L L L L n z y l =...L L L L L L L L L L L L L L n c = - ..>.L L L L L L L L L L L L L L L L L L n n s s ~ >.T L L L L L L L ",
"L L L L L L n z y l =...L L L L L L L L L L L L L L n x i s ..>.L L L L L L L L L L L L L L L L L L N n s s ~ >.T L L L L L L L ",
"L L L L L L n z y l =...L L L L L L L L L L L L L L n x s s ..=.L L L L L L L L L L L L L L L L L L n n s p ~ >.T L L L L L L L ",
"L L L L L L n z = t ....L L L L L L L L L L L L L L n x p s ..>.L L L L L L L L L L L L L L L L L L n n : = ! >.T L Z n L L L L ",
"L L L L L L n z * r ....U L L L L L L L L L L L L L n x p s ..=.U L L L L L L L L L L L L L L L L L n n - * E =.T U m n L L L L ",
"n n n n n c - = o < T T ..' L L n n n n n n n n n n - = @ @ Y T ....U L L L L L m n n n n n n n n n 9 - @ o S T ' ..U L Z n n n ",
"n n n n n z * * o , U T >.=.L L n n n n n n n n n c * * o @ L T =.>.T L L L L L n n n n n n n n n n - * o o S L ..2.T L m n n n ",
"- - - - - = o o o o @ @ 6 6 @ @ @ @ @ @ s s s s - = o o o o @ @ f f - - - - @ @ @ @ @ @ p s s s = - o o o o @ @ a f 9 - - - @ @ ",
"* * * * & %     o . . o * * . . o o . @ y y y y * * o .   . . o y y * * * * o . . o . . y y y y = & o .   . .   y y = * * * O   ",
"^ ^ ^ ^ ^ ! S H ~ ~ ~ ~ ^ ! S C   @ S J q.r._ _ ^ ^ ~ ~ ~ ~ ~ ~ _ _ ^ ^ ^ ^ G S @ o C G 6.r.' _ ^ ^ ~ ~ ~ ~ ~ ~ ^ _ ^ ^ ^ ^ ~ ~ ",
">.>.>.>.>...L T =.>.>.>.>...L G   # L T m.z.=.>.>.>.>.>.>.>.>.>.>.>.>.>.>.=.T L @ o H Y j.m.>.>.>.>.>.>.>.>.>.>.>.>.>.>.>.>.>.>.",
"T T T T T U n Z T T T T T T ..^ $ 9 a.r./ R T T T T T T T T T T T T T T T T ....= * 0.a./ R T T T T T T T T T T T T T T T T T T ",
"L L L L L L n m L L L L L T =.^ & 9 z.j.Y L L L L L L L L L L L L L L L L Y ..>.- * p.m.T L L L L L L L L L L L L L L L L L L L ",
"L L L L L L L D m Z L L L L T L & r >.>.L L L L L L L L L L L L L L L L L L T T - * ' 4.T L L L L L L L L L L L L L L L L L L L ",
"L L L L L L L L n m L L L L L D & r ....L L L L L L L L L L L L L L L L L L L L - * ..=.T L L L L L L L L L L L L L L L L L L L ",
"L L L L L L L L L L L L L L n n i f ....L L L L L L L L L L L L L L L L L L m m i i ' =.T L L L L L L L L L L L L L L L L L L L ",
"L L L L L L L L L L L L L L n x y f ....L L L L L L L L L L L L L L L L L L n n i y ' =.T L L L L L L L L L L L L L L L L L L L ",
"L L L L L L L L L L L L L L n x y f ....L L L L L L L L L L L L L L L L L L n n s y ' =.T L L L L L L L L L L L L L L L L L L L ",
"L L L L L L L L L L L L L L n x y g ....L L L L L L L L L L L L L L L L L L n n s i ' =.T L L L L L L L L L L L L L L L L L L L ",
"L L L L m Z L L m m m m m n - = @ 1 T T .._ L L L L L L m Z L L m m m m m n 9 - @ @ L T _ ' T L L L L L Z m L L Z m m m m m m m ",
"L L L L n m L L n n n n n z * * o @ L T =...L L L L L L n n L L n n n n n v - * o o L L ..=.T L L L L L n n L L n n n n n n n n ",
"e q g g d d g j : 9 9 9 d a O o o o 3 4 t t e e g g l g d d g g : 9 9 9 d d @ O o o 3 3 t t j g l l g g d d g g d d 9 9 a d 3 # ",
"* = y y y y y i * * * = y y   o o o o o * * * * u y y y y y y y * * * * i y @ o o o o o * * i y y y y y y y y y y y = * i y @ o "
};
